<?xml version="1.0" encoding="utf-8"?>
<!-- Generator: Adobe Illustrator 22.1.0, SVG Export Plug-In . SVG Version: 6.00 Build 0)  -->
<svg version="1.1" xmlns="http://www.w3.org/2000/svg" xmlns:xlink="http://www.w3.org/1999/xlink" x="0px" y="0px"
	 viewBox="0 0 1920 1080" style="enable-background:new 0 0 1920 1080;" xml:space="preserve">
<style type="text/css">
	.st0{fill:#131313;}
	.st1{opacity:0.31;fill:url(#SVGID_2_);enable-background:new    ;}
	.st2{opacity:0.36;fill:url(#SVGID_3_);enable-background:new    ;}
	.st3{opacity:0.33;fill:url(#SVGID_4_);enable-background:new    ;}
	.st4{opacity:0.28;fill:url(#SVGID_5_);enable-background:new    ;}
	.st5{fill:#EA8B26;}
	.st6{fill:#FFCD17;}
	.st7{fill:url(#SVGID_6_);}
	.st8{opacity:0.25;fill:url(#SVGID_7_);enable-background:new    ;}
	.st9{fill:#5ECAF4;}
	.st10{fill:#44B549;}
	.st11{opacity:0.26;fill:#FFFFFF;enable-background:new    ;}
	.st12{fill:#EAEAE9;}
	.st13{opacity:0.31;fill:#FFFFFF;enable-background:new    ;}
	.st14{opacity:0.12;fill:#838383;enable-background:new    ;}
	.st15{fill:#DFDCDA;stroke:#D3D3D3;stroke-width:2;stroke-miterlimit:10;}
	.st16{fill:#C6C5C5;}
	.st17{fill:#E5CFB1;}
	.st18{fill:#FFF6E9;}
	.st19{fill:#BCAF98;}
	.st20{fill:#713A39;}
	.st21{fill:#152122;}
	.st22{fill:url(#SVGID_8_);}
	.st23{opacity:0.74;fill:#F3E6C9;enable-background:new    ;}
</style>
<g id="Layer_1">
	<g>
		<rect x="0.5" y="0.5" class="st0" width="1919" height="1079"/>
		<path d="M1919,1v1078H1V1H1919 M1920,0H0v1080h1920V0L1920,0z"/>
	</g>
</g>
<g id="Layer_2">
	<g id="CLOUD">
		
			<linearGradient id="SVGID_2_" gradientUnits="userSpaceOnUse" x1="252.1864" y1="359.1769" x2="252.1864" y2="298.0232" gradientTransform="matrix(1 0 0 -1 0 1082)">
			<stop  offset="0" style="stop-color:#F3E6C9;stop-opacity:0.9"/>
			<stop  offset="0.7608" style="stop-color:#F3E6C9;stop-opacity:0"/>
		</linearGradient>
		<path class="st1" d="M382,784c0-21.3-18.3-38.5-40.8-38.5c-8.9,0-17.2,2.7-23.9,7.3c-9.2-11.8-23.8-19.4-40.3-19.4
			c-12.2,0-23.4,4.2-32.2,11.2c-12.7-13.3-31.8-21.8-53.1-21.8c-38.4,0-69.5,27.4-69.5,61.2"/>
		
			<linearGradient id="SVGID_3_" gradientUnits="userSpaceOnUse" x1="4224.1279" y1="237" x2="4224.1279" y2="175.8463" gradientTransform="matrix(-1 0 0 -1 4921.0566 1082)">
			<stop  offset="0" style="stop-color:#F3E6C9;stop-opacity:0.9"/>
			<stop  offset="0.7608" style="stop-color:#F3E6C9;stop-opacity:0"/>
		</linearGradient>
		<path class="st2" d="M567.1,906.2c0-21.3,18.3-38.5,40.8-38.5c8.9,0,17.2,2.7,23.9,7.3c9.2-11.8,23.8-19.4,40.3-19.4
			c12.2,0,23.4,4.2,32.2,11.2c12.7-13.3,31.8-21.8,53.1-21.8c38.4,0,69.5,27.4,69.5,61.2"/>
		
			<linearGradient id="SVGID_4_" gradientUnits="userSpaceOnUse" x1="1302.88" y1="278.1849" x2="1302.88" y2="231.7182" gradientTransform="matrix(1 0 0 -1 0 1082)">
			<stop  offset="0" style="stop-color:#F3E6C9;stop-opacity:0.9"/>
			<stop  offset="0.7608" style="stop-color:#F3E6C9;stop-opacity:0"/>
		</linearGradient>
		<path class="st3" d="M1376.4,850.3c0-16.2-10.3-29.3-23.1-29.3c-5.1,0-9.7,2.1-13.5,5.6c-5.2-9-13.5-14.7-22.8-14.7
			c-6.9,0-13.3,3.2-18.2,8.5c-7.2-10.1-18-16.5-30.1-16.5c-21.7,0-39.3,20.8-39.3,46.5"/>
		
			<linearGradient id="SVGID_5_" gradientUnits="userSpaceOnUse" x1="1472.9308" y1="806.671" x2="1473.9879" y2="746.1082" gradientTransform="matrix(1.7401 -5.630000e-02 -7.210000e-02 -1.1259 -2062.5681 1277.9354)">
			<stop  offset="0" style="stop-color:#F3E6C9;stop-opacity:0.9"/>
			<stop  offset="0.74" style="stop-color:#F3E6C9;stop-opacity:0"/>
		</linearGradient>
		<path class="st4" d="M593.1,330.8c-0.2-24-30.5-43.2-67.6-42.8c-27.7,0.3-51.5,11.4-61.5,27c-8.4-6-20.7-9.7-34.2-9.5
			c-13.1,0.1-24.9,3.8-33.2,9.6c-9.8-4-21.4-6.3-33.9-6.2c-34.1,0.3-61.6,18.5-61.4,40.6"/>
	</g>
	<image style="overflow:visible;" width="2560" height="200" href="./ground.png"  transform="matrix(0.75 0 0 0.68 0 944)">
	</image>
	<g id="FIRE">
		<g>
			<path class="st5" d="M1591.7,846.1c-0.8,9.9-1.8,1-2.4-0.6c-0.7-1.7-2.7-1.4-1.7,2.6c1,4,1.9,11.5,0.5,13
				c-1.4,1.5-1.1,2.3-1.7-0.5c-0.6-2.7-1.3-6.4-1.6-1.7c-0.3,4.7-3.7,14.1-5.7,15.3s-1-0.2-1.1-1.7c-0.1-1.5-3-7.4-3-2.9
				c0.1,4.6-1.4,14.1-2.8,14.1c-1.4,0-2.9-9.5-2.8-14.1c0.1-4.6-2.9,1.4-3,2.9c-0.1,1.5,1,2.9-1.1,1.7c-2.1-1.2-5.4-10.6-5.7-15.3
				c-0.3-4.7-1-1-1.6,1.7c-0.6,2.7-0.3,1.9-1.7,0.5s-0.9-8.6,0-12.7c1-4-0.3-3.9-1-2.3c-0.7,1.7-1.9,4.8-2.2,0.8
				c-1.2-16.2,9.6-28,19.3-28C1582.1,818.8,1592.4,836.2,1591.7,846.1L1591.7,846.1z"/>
			<path class="st6" d="M1572.1,872.4c-1.3,0-4.6-15-5.9-11.8c-1.3,3.1,1.1,7.2-1.3,4.8c-2.3-2.4-1.9-18.6-4-14.4
				c-2.1,4.2-0.6-6.1,0.7-10.2c1.4-4-0.8-4.2-2.7-2.2c-1.9,1.9-2.2,3.6-1.8-0.8c0.2-2.4,3.6-13.6,7.2-18.5c2.8-3.9,5.8-1.7,7.6-3.3
				c2.1,1.9,6.8-0.7,10,3.8c3.2,4.5,4.9,15.9,5.1,18.1c0.4,4.3,0.1,2.7-1.8,0.8c-1.9-1.9-4.1-1.8-2.7,2.2c1.4,4,2.8,14.4,0.7,10.2
				c-2.1-4.2-1.7,12-4,14.4c-2.3,2.4,0-1.6-1.3-4.8C1576.8,857.4,1573.4,872.4,1572.1,872.4L1572.1,872.4z"/>
			<path class="st5" d="M1571.3,809c-2.5,6.9-8.4,28.2-4.3,23.7c4.1-4.5-0.2,12.4,1.6,9.4c1.8-3,1.7,5.2,3.7,4.5
				c2,0.8,1.9-7.5,3.7-4.5c1.8,3-2.5-13.9,1.6-9.4S1573.8,815.9,1571.3,809L1571.3,809z"/>
		</g>
		<g>
			<path class="st5" d="M1539.4,889.7c-0.6,7.4-1.3,0.8-1.8-0.5c-0.5-1.2-2-1.1-1.3,1.9c0.7,3,1.4,8.6,0.3,9.7
				c-1.1,1.1-0.8,1.7-1.2-0.3c-0.4-2.1-1-4.8-1.2-1.3c-0.3,3.5-2.7,10.6-4.3,11.5c-1.6,0.9-0.7-0.1-0.8-1.3
				c-0.1-1.1-2.3-5.6-2.2-2.1c0.1,3.4-1.1,10.5-2.1,10.5c-1,0-2.2-7.1-2.1-10.5c0.1-3.4-2.1,1-2.2,2.1c-0.1,1.1,0.8,2.2-0.8,1.3
				c-1.6-0.9-4.1-8-4.3-11.5c-0.3-3.5-0.8-0.8-1.2,1.3c-0.4,2.1-0.2,1.4-1.2,0.3c-1.1-1.1-0.7-6.5,0-9.5c0.7-3-0.2-2.9-0.7-1.7
				c-0.5,1.2-1.4,3.6-1.6,0.6c-0.9-12.1,7.2-21,14.5-21C1532.2,869.2,1539.9,882.3,1539.4,889.7L1539.4,889.7z"/>
			<path class="st6" d="M1524.7,909.4c-1,0-3.5-11.2-4.4-8.9c-0.9,2.4,0.8,5.4-0.9,3.6c-1.7-1.8-1.4-13.9-3-10.8
				c-1.6,3.1-0.5-4.6,0.6-7.6c1-3-0.6-3.1-2-1.7c-1.4,1.5-1.7,2.7-1.3-0.6c0.2-1.8,2.7-10.2,5.4-13.9c2.1-2.9,4.3-1.3,5.7-2.5
				c1.6,1.4,5.1-0.5,7.5,2.8c2.4,3.4,3.6,11.9,3.8,13.6c0.3,3.3,0.1,2-1.3,0.6c-1.4-1.5-3.1-1.3-2,1.7s2.1,10.8,0.6,7.6
				c-1.6-3.1-1.3,9-3,10.8c-1.7,1.8,0-1.2-0.9-3.6C1528.2,898.1,1525.7,909.4,1524.7,909.4L1524.7,909.4z"/>
			<path class="st5" d="M1524.1,861.8c-1.9,5.2-6.3,21.1-3.2,17.8c3.1-3.4-0.2,9.3,1.2,7.1c1.3-2.2,1.3,3.9,2.8,3.4
				c1.5,0.6,1.4-5.6,2.8-3.4c1.3,2.2-1.9-10.5,1.2-7.1C1531.8,882.9,1526,867,1524.1,861.8L1524.1,861.8z"/>
		</g>
		<g>
			<path class="st5" d="M1636,890.6c-0.6,7.6-1.3,0.8-1.8-0.5c-0.5-1.3-2-1.1-1.3,2c0.7,3.1,1.4,8.8,0.3,9.9
				c-1.1,1.1-0.8,1.7-1.3-0.4c-0.4-2.1-1-4.9-1.2-1.3c-0.3,3.6-2.8,10.8-4.4,11.7s-0.8-0.1-0.8-1.3c-0.1-1.2-2.3-5.7-2.3-2.2
				c0.1,3.5-1.1,10.8-2.2,10.8c-1.1,0-2.2-7.3-2.2-10.8c0.1-3.5-2.2,1-2.3,2.2c-0.1,1.2,0.8,2.2-0.8,1.3s-4.1-8.2-4.4-11.7
				c-0.3-3.6-0.8-0.8-1.2,1.3c-0.4,2.1-0.2,1.5-1.3,0.4c-1.1-1.1-0.7-6.6,0-9.7c0.7-3.1-0.2-3-0.7-1.7c-0.5,1.3-1.4,3.7-1.7,0.6
				c-0.9-12.4,7.4-21.5,14.8-21.5C1628.7,869.7,1636.5,883.1,1636,890.6L1636,890.6z"/>
			<path class="st6" d="M1621,910.8c-1,0-3.5-11.5-4.5-9.1c-1,2.4,0.8,5.5-1,3.7c-1.8-1.8-1.4-14.3-3.1-11c-1.6,3.2-0.5-4.7,0.6-7.8
				c1-3.1-0.6-3.2-2.1-1.7c-1.4,1.5-1.7,2.8-1.4-0.6c0.2-1.9,2.8-10.4,5.5-14.2c2.2-3,4.4-1.3,5.8-2.6c1.6,1.4,5.2-0.5,7.6,2.9
				c2.4,3.4,3.7,12.2,3.9,13.9c0.3,3.3,0.1,2.1-1.4,0.6c-1.4-1.5-3.1-1.4-2.1,1.7c1,3.1,2.2,11,0.6,7.8c-1.6-3.2-1.3,9.2-3.1,11
				c-1.8,1.8,0-1.3-1-3.7C1624.5,899.3,1622,910.8,1621,910.8L1621,910.8z"/>
			<path class="st5" d="M1620.4,862.2c-1.9,5.3-6.4,21.6-3.3,18.2c3.1-3.4-0.2,9.5,1.2,7.2c1.4-2.3,1.3,4,2.8,3.4
				c1.5,0.6,1.4-5.7,2.8-3.4c1.4,2.3-1.9-10.7,1.2-7.2C1628.3,883.8,1622.3,867.4,1620.4,862.2L1620.4,862.2z"/>
		</g>
	</g>
	
		<image style="overflow:visible;" width="800" height="800"  href="./holder.png"  transform="matrix(-0.575 0 0 0.6719 1897 459)">
	</image>
	
		<image style="overflow:visible;" width="500" height="750" href="./rocket.png"  transform="matrix(0.472 0 0 0.4307 1453 547)">
	</image>
	<g id="EARTH">
		<g>
			
				<radialGradient id="SVGID_6_" cx="1653.0072" cy="743.5164" r="90.5073" gradientTransform="matrix(1.1792 0 0 -1.1832 -449.4974 1129.9855)" gradientUnits="userSpaceOnUse">
				<stop  offset="0" style="stop-color:#FFFFFF"/>
				<stop  offset="0.1033" style="stop-color:#FAFAFA"/>
				<stop  offset="0.2269" style="stop-color:#EBEBEB"/>
				<stop  offset="0.3611" style="stop-color:#D3D3D3"/>
				<stop  offset="0.5026" style="stop-color:#B1B1B1"/>
				<stop  offset="0.65" style="stop-color:#868686"/>
				<stop  offset="0.8023" style="stop-color:#515151"/>
				<stop  offset="0.9558" style="stop-color:#131313"/>
				<stop  offset="1" style="stop-color:#000000"/>
			</radialGradient>
			<path class="st7" d="M1581.4,181.4c37.9,45.3,32.1,112.8-13,150.9c-45.1,38.1-112.4,32.2-150.4-13.1
				c-37.9-45.3-32.1-112.8,13-150.9C1476.2,130.2,1543.5,136.1,1581.4,181.4z"/>
		</g>
		
			<radialGradient id="SVGID_7_" cx="1653.0072" cy="743.5164" r="90.5073" gradientTransform="matrix(1.1792 0 0 -1.1832 -449.4974 1129.9855)" gradientUnits="userSpaceOnUse">
			<stop  offset="0" style="stop-color:#5ECAF4"/>
			<stop  offset="0.821" style="stop-color:#5FCAF4;stop-opacity:0.5555"/>
			<stop  offset="1" style="stop-color:#5FCAF4;stop-opacity:0"/>
		</radialGradient>
		<path class="st8" d="M1581.4,181.4c37.9,45.3,32.1,112.8-13,150.9c-45.1,38.1-112.4,32.2-150.4-13.1
			c-37.9-45.3-32.1-112.8,13-150.9C1476.2,130.2,1543.5,136.1,1581.4,181.4z"/>
		<circle class="st9" cx="1500" cy="251.7" r="80.2"/>
		<g>
			<g>
				<g>
					<path class="st10" d="M1523.1,294.4c-3.6-5.8-9-11.9-11.7-11.8c-1.4-0.1-3.3-3.1-4.1-1.4c-1.1,2.4-2.4,0.8-3.7-0.4
						c-1.6-1.1-1.9-2.9-2.3-4.8c-2.6,0.6-5.2,1-6.1,0.5c-2-1-2.4-2.2-2.4-2.2s-8.3,3.9-10.1,3.1c-1.9-0.8-8.9,9.5-10.7,9.3
						c-1.8-0.2-0.7-0.7-2-3.4c-1.3-2.7-1.5-1.7-4.1-1.4c-2.6,0.3-3.7-1.6-3.8-3.7c-0.1-2.1-4.3-0.6-5.2,0.6
						c-0.9,1.2-2.5,4.8-3.3,4.4c-0.8-0.4-3.7-7.7-3.7-7.7l1.4-4.6c0,0,6.2-4.6,7.3-4.2c1.1,0.4,7,3.9,7.7,3.1
						c0.7-0.8,1.4-2.8,1.4-3.7c0-0.9-1.8,1.6-2.8-2.9c-1-4.5,0.5-8.3,0.5-8.3s-0.7-2.9-0.9-3.6c-0.2-0.8,0.5-6.7,1.7-7.6
						c1.2-0.8,3.8-3.9,4.3-5.4c0.5-1.6-0.6-2-1-3.6c-0.4-1.6,0.4,0.6-0.4-1.6c-0.7-2.2-5.3-3.3-6.5-4c-1.2-0.7-6.2,0.4-7.9,1.3
						c-1.7,0.9-4.4,5.2-4.4,5.2s1.9,3.2,1.1,3.8c-0.8,0.6-4.6,0.8-4.6,0.8s-3.3,0.5-3-1.8c0.3-2.3-0.2-3.2,1-4
						c1.2-0.8,2.4-2.6,2.4-2.6s0.5-0.1,0.7-1.7c0.2-1.6-0.7-2.5,1-3.2c1.8-0.6,2.4-1.4,3.4-0.6c1,0.8,2.5-13.3,2.4-14.8
						c0-1.5-4.8,4.1-10.4-3.1c-4.3-5.6-13.7,24.2-14.4,24.4c-0.7,0.2-7.9,4.6-7.9,4.6l-1.1,0.5c-0.5,2.3-0.7,4.6-0.9,7
						c0.2-0.1,0.2,0,0.5-0.1c1.3-0.1,2.6-1.3,2.9,0.3c0.4,1.6,0.3,1.9,0.2,4.1c-0.1,2.2-0.1,1-0.4,3.9c-0.3,2.9,1,5.1,1,5.1l-1,7.4
						c0,0,3.2,5,3.4,5.8c0.2,0.8,4.6,3.5,4.6,3.5l2.9,7.4c0,0,3.6,4.7,4.2,2.8c0.6-1.9,0.5-4.9-0.6-5.3c-1.1-0.4,0.7-0.2,2.3,1.1
						c1.6,1.3,3.2,5,3.9,6.7c0.7,1.6,6.1,1.5,9.3,1.1c3.1-0.4,5.6-2.4,8.9-0.5c3.3,1.9,2.9-2.6,5-0.5c2.1,2.2,5,3.2,7.1,2.6
						c2.2-0.6,3.8-4.5,5.5-2c1.7,2.4-3.6,11.3,0.4,14.9c1.9,1.7,5.5,2.7,8.9,3.4c9.3-0.7,17.4,4.4,24.1,11.7c0.6,0.5,1.3,0.1,2-0.5
						c0.7-1.1,1.3-1.9,1.5-2.2c0.7-1.1,3.8-10.6,3.4-11.8c-0.4-1.2,2.4-5.3,3-5.8C1523.3,298.2,1523.2,296.6,1523.1,294.4z"/>
				</g>
				<g>
					<path class="st10" d="M1463.5,274.8c1.1,1.4,2.5,0.8,3.3,1.1c0.8,0.4-0.4-1.6,0.7-2.1c1.1-0.6,5-3.1,5.2-1.6
						c0.2,1.5,1.4-1.3,2.4-1.6c1-0.3,0.3-1.4-0.6-1c-0.9,0.4-2.3-0.3-3.3,0.1C1470.2,270,1463.5,274.8,1463.5,274.8z"/>
				</g>
				<g>
					<path class="st10" d="M1477.6,272.9c-0.7,0.4,0.9,0.5,2.2,0.2c1.3-0.3,1.1-1,1.6-2.7c0.4-1.7-0.6-2.9-1.4-2.3
						C1479.1,268.7,1479.5,271.8,1477.6,272.9z"/>
				</g>
				<g>
					<path class="st10" d="M1502.1,174.8c0.3,0.6,1.7,1,0.3,1.6c-1.4,0.6-2.1,1.3-2.3,1.6c-0.2,0.4-0.9,0.6-1.4,1.4
						c-0.5,0.8-0.6,0.8-1.5,1.6c-0.9,0.8-0.9,0.8-0.9,0.8c-0.2,0.2-0.3,0.4-0.5,0.6c0,0-0.9,0.2-1.4-0.3c-0.5-0.4-0.7-1.3-1.1-1.1
						c-0.5,0.2-1.5,1.4-1.4,2c0.1,0.5,0.5,1.4,1.1,1.5c0.6,0.1,2,0,1,0.5c-1,0.5-2,1.3-2.2,2.2c-0.2,0.9-0.5,2.7-0.5,2.7
						c0,0-1.7,1.7-1.3,2.1c0.3,0.4,0.8,1,0.2,1.7c-0.6,0.6-1.3,1.6-2,2.6c-0.8,0.9-0.4,1.2-1.3,2.2c-1,1-0.7,1.6,0.3,0.9
						c1.1-0.7,3-1.3,3.7-0.7c0.6,0.7,1.1,1.6,1.4,2.7c0.1,0.7-1.7,1.7-2.5,2.5c-0.9,0.8-2.9,2-3.4,3c-0.5,1,0.9,2.6,1.8,3.2
						c0.8,0.6,0.9,1.3,0.8,1.9c-0.1,0.5,0.4,1.4,1.1,1.5c0.6,0,1.6,0.6,2,0.4c0.4-0.2,1.1-1.4,1.8-1.3c0.7,0.1,2,0.9,2,0.4
						c0-0.5-0.6-1.9,0-2c0.6-0.1,1.2-1.2,1.8-1.9c0.6-0.7,0.3-1.9,0.6-3c0.3-1-0.1-0.7-0.7-1c-0.7-0.3-0.2-1.7-0.2-2.8
						c0-1.1,1.4-1.4,1.1-2.3c-0.3-0.9-1.2-2.1-0.5-2.5c0.7-0.4,1.8-0.7,2.4-1.2c0.5-0.5,0.9-2.3,1.1-2.7c0.2-0.4,1.4-1.3,2.1-0.7
						c0.8,0.6,2.8,0.4,3.3,0.3c0.4-0.1,3-1.1,3.5-1.1c0.5,0,1.6,0.4,2.4,0.9c0.8,0.6,2.4,0.6,1.9-0.1c-0.5-0.7-3-1.8-2.4-2.2
						c0.6-0.4,1-1.1,1-1.1c0,0-2.4,0.2-3.2,0.4c-0.7,0.2-2.2,0.6-3.3,0.1c-1.2-0.4-2.4,0.4-3-0.5c-0.6-0.8,0.8-1.3,2-1.2
						c1.2,0.1,3.4-0.3,4.5-0.2c1,0.1,2.1-0.4,3,0.2c0.9,0.5,2.3,0.8,2.9,0.9c0.5,0.1,3.1,2.7,3.7,3c0.6,0.2,0.8-2.3,0.8-3
						c0.1-0.7,0.6-1.4,0.1-2.2c-0.5-0.7-2-0.4-2.5-0.4c-0.5,0,0.3-1.1,0.4-1.8c0.1-0.6,0.2-1.8,1-1.5c0.8,0.2,2.5,2.3,2.9,2.5
						c0.5,0.2,2.5-0.6,3.2-0.4c0.7,0.2,2.1-0.7,2.1-1.2c0-0.4,1.6-1,2-1.2c0.4-0.2,1-1.2,1.5-1.9c0.4-0.7,0.6-1.7,1.5-0.5
						c1,1.1,2.4,3,2.4,4.6c0.1,1.5,0.8,1.7,0,2.4c-0.4,0.3-0.7,0.6-0.8,0.9c-0.7-0.3-1.3-0.3-1.7,0.2c-0.7,1-1.6,1.8-2.3,1.6
						c-0.7-0.2-2.4,1.6-3.4,2.4c-1,0.9-2.5,0.9-3.4,1.3c-0.9,0.5,0.3,2.6,0.4,4.2c0,1.6-2.4,1.2-3.1,1.8c-0.7,0.6-3,0.5-3,0.5
						c0,0-1.9,0.5-2.4,1c-0.5,0.5-2.6,0.2-2.9,0.5c-0.3,0.3-1.9,0.2-1.5-0.7c0.3-0.9,2.3-1.3,0-2.7c-2.3-1.4-4,0.8-4.3,1.5
						c-0.3,0.7-4.2,4-4.5,4.2c-0.3,0.3-1.8,3.1-2.2,4.1c-0.4,1-1.3,2.5-1.4,3c-0.2,0.5-2.2,1.3-2.5,2.4c-0.4,1.4-0.5,3.2-0.8,3.4
						c-0.2,0.2-0.4,1.5,0.2,3.3c0.6,1.9,2.2,2.6,1.7,3.9c-0.5,1.2-1.7,3.6-1.7,5c0,1.3,1.9,4.8,2.1,6.8c0.2,2,2,2.5,2.8,3.1
						c0.8,0.7,2.5,1.7,2.8,3.8c0.3,2.1,0.9,2.8,0.6,3.2c-0.3,0.4,0.8,0.2,1.8,1c1,0.8,0.9,2.6,3.1,2.1c2.2-0.4,3.6-1.6,5-0.7
						c1.4,0.8,4.9,2.3,4.9,2.3c0,0,2.7,0.3,3.9,0.3c1.3,0,1.2-0.5,0.8-1.3c-0.4-0.8,0.5-1.7,1.6-2.7c1.1-1,2.1-1.3,3.1-2.5
						c0.9-1.1,0.4-3.5,0.6-4c0.2-0.5,1.7-2.2,3.3-2.3c1.6-0.1,2.3,1.1,3.4,1.3c1.1,0.2,1.7-1,1.9-2.3c0.2-1.3,0.1-0.7,1.4-0.9
						c1.3-0.2,2.2,0.1,2.1,1.6c-0.1,1.5,1.4,2.5,2,4.2c0.6,1.7,1.5,0.9,2.7,0.7c1.3-0.2,4.7,2.8,5.6,3c0.9,0.2,1.6,2.5,2.9,3.1
						c1.3,0.6,1.9,1,1.7,2c-0.2,1-0.2,2.6,0.8,4.3c1.1,1.6,2.2,2.3,2.8,2.6c0.7,0.3,2.3,1,3,1.2c0.7,0.2,2.4,0,3,0.7
						c0.5,0.7,0.2,2.6,0.8,2.6c0.6,0.1,1.1,0.4,1.9,0.4c0.9-0.1,1.5,0.7,1.5,0.7c0,0,0.4,0.2,0.7,0.7c0.3,0.5,0.5,0.8,1.3,0.4
						c0.7-0.3,1.2-0.7,1.4-1.2c0.2-0.5,1.3-2.2,2.1-2.9c0.8-0.7,2-1.6,2.6-2.9c0.6-1.2,1.3-3.7,1.6-4.6c0.3-0.8,1-2.6,0.6-3.1
						c-0.3-0.4-1.5-0.6-1.1-1.4c0.4-0.8,2-2.6,1.9-3.1c-0.1-0.5-1.5-1.9-1.9-2.2c-0.3-0.3-0.2-1.4-0.1-2.7c0.1-1.3,1-3.2,0.9-3.7
						c-1.7-11.3-8.1-25.1-15.9-35c-15.8-19.8-36.9-29.4-59.1-30.4c-0.4,0.4-1.1,0.6-1.6,1C1501.4,173.1,1501.8,174.2,1502.1,174.8z"
						/>
				</g>
				<g>
					<path class="st10" d="M1483.1,177.5c-1.1,1.2-1.4,4-1.2,4.2c0.2,0.2,1.4,0.5,1.4,0.8c0,0.3,1.1,0.8,2.1,0.4c1-0.4,2.2-1.6,2-2
						c-0.2-0.4,0.1-2,0.6-1.6c0.5,0.4,2,0.6,2.2,1.1c0.2,0.5,0.7,0.7,1.1,0.2c0.4-0.5,2.6-3.2,2.6-3.2c0,0,0.5-1,0-1.3
						c-0.6-0.3-0.2-1.8-0.1-2.1c0-0.3,0.1-1.5-1-1c-1.1,0.6-1.8,1.1-1.5-0.3c0.2-0.6,0.1-0.6,0.5-0.9c0.6,0-3.1,0.3-5.9,0.8
						c0,0,0,0.2-0.2,0.8C1485.2,174.6,1484.1,176.3,1483.1,177.5z"/>
				</g>
				<g>
					<g>
						<path class="st10" d="M1475,193c0.3-0.5,1-0.4,1.1-1.1c0.1-0.7,0.3-1.5,1-1.6c0.8-0.2,2-1.7,2.8-1.7c0.8,0-0.5,2.6,0.1,2.5
							c0.6-0.1,2.2,0.5,3.1,0.2c0.8-0.3,2.2-0.1,2.6,0.3c0.5,0.4,0.2,2.1-0.4,2.6c-0.6,0.5-2,1.1-2.6,1.7c-0.6,0.5-0.3,1.4-0.8,1.5
							c-0.5,0.2-0.4-0.7-0.4-0.7c0,0-1.9,2-2.1,1.4c-0.2-0.6,0.4-3.5,0.8-4.2c0.4-0.8-1.3,0.3-2.2,0.6c-0.9,0.3-1.9,0-2.4-0.1
							C1475.3,194.2,1474.6,193.7,1475,193z"/>
					</g>
				</g>
			</g>
		</g>
	</g>
	<g id="MOON">
		<g>
			<circle class="st11" cx="1500.8" cy="123.8" r="25.9"/>
			<circle class="st12" cx="1500.9" cy="124" r="23.8"/>
			<circle class="st13" cx="1501" cy="124.2" r="28"/>
			<path class="st14" d="M1507.2,142.7c-13.1,0-23.8-10.6-23.8-23.8c0-6.1,2.3-11.6,6-15.8c-7.4,4-12.4,11.9-12.4,20.9
				c0,13.1,10.6,23.8,23.8,23.8c7.1,0,13.4-3.1,17.7-8C1515.2,141.6,1511.4,142.7,1507.2,142.7z"/>
		</g>
		<g>
			<g>
				<circle class="st15" cx="1505" cy="138.6" r="3.4"/>
				<path class="st16" d="M1505.3,141.6c-1.8,0-3.2-1.5-3.2-3.2c0-0.7,0.2-1.3,0.6-1.9c-0.6,0.6-0.9,1.4-0.9,2.3
					c0,1.8,1.5,3.2,3.2,3.2c1.1,0,2.1-0.5,2.7-1.4C1507,141.2,1506.2,141.6,1505.3,141.6z"/>
			</g>
			<g>
				<circle class="st15" cx="1514.2" cy="125.7" r="1.5"/>
				<path class="st16" d="M1514.3,127c-0.8,0-1.4-0.6-1.4-1.4c0-0.3,0.1-0.6,0.3-0.8c-0.3,0.3-0.4,0.6-0.4,1c0,0.8,0.6,1.4,1.4,1.4
					c0.5,0,0.9-0.2,1.1-0.6C1515,126.8,1514.7,127,1514.3,127z"/>
			</g>
			<g>
				<circle class="st15" cx="1494" cy="116.3" r="5"/>
				<path class="st16" d="M1494.4,120.7c-2.6,0-4.7-2.1-4.7-4.7c0-1,0.3-1.9,0.9-2.7c-0.8,0.8-1.4,2-1.4,3.3c0,2.6,2.1,4.7,4.7,4.7
					c1.6,0,3-0.8,3.8-2C1496.8,120.2,1495.7,120.7,1494.4,120.7z"/>
			</g>
			<g>
				<circle class="st15" cx="1487.8" cy="127.5" r="2.4"/>
				<path class="st16" d="M1488,129.6c-1.2,0-2.3-1-2.3-2.3c0-0.5,0.2-0.9,0.4-1.3c-0.4,0.4-0.7,1-0.7,1.6c0,1.2,1,2.3,2.3,2.3
					c0.8,0,1.4-0.4,1.8-1C1489.1,129.3,1488.6,129.6,1488,129.6z"/>
			</g>
			<g>
				<circle class="st15" cx="1504.5" cy="110.9" r="0.9"/>
				<path class="st16" d="M1504.6,111.7c-0.5,0-0.9-0.4-0.9-0.9c0-0.2,0.1-0.4,0.2-0.5c-0.2,0.2-0.3,0.4-0.3,0.6
					c0,0.5,0.4,0.9,0.9,0.9c0.3,0,0.6-0.1,0.7-0.4C1505,111.6,1504.8,111.7,1504.6,111.7z"/>
			</g>
			<g>
				<circle class="st15" cx="1511.3" cy="118.1" r="0.6"/>
				<path class="st16" d="M1511.3,118.7c-0.3,0-0.6-0.3-0.6-0.6c0-0.1,0-0.2,0.1-0.3c-0.1,0.1-0.2,0.3-0.2,0.4
					C1510.7,118.5,1511,118.7,1511.3,118.7c0.1,0.1,0.3,0,0.4-0.2C1511.7,118.6,1511.5,118.7,1511.3,118.7z"/>
			</g>
		</g>
	</g>
	<g id="IO">
		<path class="st17" d="M1298.4,195.7c0,0,10.2-0.2,11.9,5.6c1.6,5.8-9.9,25.7-9.9,25.7l-6.6-26.5L1298.4,195.7z"/>
		<g>
			<g>
				<g>
					<g>
						<path class="st18" d="M1259.7,194.4c0,0-14-3.7-20.1-3.7s-19,3.2-24.4,4.8c0,0-4.5,8,1.7,12.5c0,0,18.1-1.7,22.9,0
							c4.8,1.7,11.9,3.9,11.9,3.9l11.8-13.4L1259.7,194.4z"/>
						<path class="st18" d="M1215.2,195.5c0,0-8.9-2.4-11.5-1.3c-2.6,1.1,4.5,2.6,4.5,2.6s-9.1,0.6-9.1,2.2c0,1.7,9.3,0.9,9.3,0.9
							s-9.3,0.2-9.3,1.9s8.9,1.1,8.9,1.1s-7.1,2-7.3,3.5c-0.2,1.5,8.4,0,8.4,0s-0.7,2.3-2,4.5c-1.2,2.2,4,1.9,9.8-3L1215.2,195.5z"
							/>
					</g>
					<g>
						<path class="st19" d="M1216.9,209.6c-0.5,0-1-0.2-1.3-0.6c-5.4-7.2-2-13.9-1.8-14.2c0.4-0.8,1.4-1.1,2.2-0.7
							c0.8,0.4,1.1,1.4,0.7,2.2c-0.1,0.2-2.6,5.3,1.5,10.8c0.5,0.7,0.4,1.7-0.3,2.3C1217.6,209.5,1217.2,209.6,1216.9,209.6z"/>
						<path class="st19" d="M1236.1,190.9c0,0-0.9,10.9,0,16.5c0,0,0.8,1.6,3.7,0.6c0,0,4.6-8.4,3.9-17
							C1243.7,191,1240.3,189.1,1236.1,190.9z"/>
						<path class="st19" d="M1252.2,212.1l-1-0.5c4.5-9.5,9.5-13.1,9.8-13.3l0.6,0.9C1261.5,199.3,1256.5,202.9,1252.2,212.1z"/>
					</g>
				</g>
				<g>
					<path class="st18" d="M1262.1,198.1c0,0-18.4,13.8-13,39.7c0,0-15.8,7.8-19.9,12.1c-4.1,4.3-8.8,22-8.8,22s-8.8,3.4-9.5,8.9
						c-0.7,5.6,15.5,5.8,24.2,0c0,0,5.4-14.2,6.5-18.8l14.3-3.2l-0.2,1.6c-0.5,2.7-0.8,5.5-0.9,8.5c0,0,0,10.4,6,20.1
						c0,0-3.9,14,1.3,19.7c5.2,5.8,16.2-7.8,14.9-22c0,0-4.7-10.6-4.3-15.3l10.1-21.4c0,0,5.3-3.9,5.2-15.8l1.1-29.8L1262.1,198.1z"
						/>
					<circle class="st20" cx="1257.2" cy="217" r="3.6"/>
					<g>
						<path class="st19" d="M1235.1,282.4c-0.1,0-0.3,0-0.4,0c-15-3.7-15.9-9.7-15.9-10.4c-0.1-0.9,0.6-1.7,1.5-1.7
							c0.9-0.1,1.6,0.6,1.7,1.4c0,0.2,1.1,4.5,13.5,7.5c0.9,0.2,1.4,1.1,1.2,2C1236.5,281.9,1235.9,282.4,1235.1,282.4z"/>
						<path class="st19" d="M1232.6,247.1c0,0,8.3,8.7,9.1,14.8c0.7,6.1-15.3-7.4-15.3-7.4S1226.3,249.1,1232.6,247.1z"/>
						<path class="st19" d="M1258.6,250.4c-0.7,0-1.3-0.4-1.5-1.1c-2.5-8.1-8.2-9.9-8.4-9.9c-0.9-0.3-1.3-1.1-1.1-2
							c0.2-0.9,1.1-1.4,2-1.1c0.3,0.1,7.6,2.2,10.6,12.1c0.3,0.9-0.2,1.8-1.1,2C1258.9,250.4,1258.7,250.4,1258.6,250.4z"/>
					</g>
					<g>
						<g>
							<path class="st19" d="M1267.3,292.3c-0.6,0-1.2,0-1.7-0.1c-3.3-0.4-5.6-1.8-5.6-1.9c-0.8-0.5-1-1.5-0.5-2.2
								c0.5-0.7,1.5-1,2.2-0.5c0.3,0.2,7,4.2,14.3-2.1c0.7-0.6,1.7-0.5,2.3,0.2c0.6,0.7,0.5,1.7-0.2,2.3
								C1274.1,291.4,1270.2,292.3,1267.3,292.3z"/>
							<path class="st19" d="M1273,273.4c-5.4,4.6-17.2,4.6-17.7,2c-0.8-2.1-0.6-4.7-0.6-4.7c8.4-4.9,18.1-0.1,18.1-0.1
								S1273.6,271.5,1273,273.4z"/>
							<path class="st19" d="M1282.8,251.7c-0.3,0-0.7-0.1-0.9-0.3c-0.5-0.4-12-8.5-23.2-0.7c-0.7,0.5-1.7,0.3-2.2-0.4
								c-0.5-0.7-0.3-1.7,0.4-2.2c13.1-9.1,26.8,0.6,26.9,0.7c0.7,0.5,0.9,1.5,0.4,2.3C1283.8,251.4,1283.3,251.7,1282.8,251.7z"/>
						</g>
						
							<rect x="1251.3" y="252.9" transform="matrix(0.1564 -0.9877 0.9877 0.1564 809.9809 1455.1399)" class="st19" width="11.1" height="1.1"/>
					</g>
				</g>
			</g>
			<g>
				<g>
					<ellipse class="st18" cx="1279.8" cy="184.2" rx="23.9" ry="23.6"/>
					<path class="st21" d="M1283.2,206c-1.6,0.4-3.3,0.6-5,0.6c-12.3,0-22.2-9.8-22.2-21.9c0-5.5,2.1-10.6,5.5-14.5l0.2-0.2
						c0.6-0.6,1.5-0.5,1.9,0.3c1.7,3,7.5,8.9,27.2,6.5c1.2-0.1,2.2,0.7,2.3,1.9c0.5,5.4,0.7,19.5-8.8,27.1L1283.2,206z"/>
				</g>
				<g>
					<g>
						<path class="st18" d="M1300.2,258.4c0,0-1.8,12.8-3.5,15.1c-1.7,2.3-1.5-5-1.5-5s-2.7,8.7-4.3,8.3c-1.6-0.4,1.3-9.3,1.3-9.3
							s-2.4,9-4,8.6c-1.6-0.4,1-9,1-9s-3.6,6.4-5.1,6.2c-1.5-0.2,2-8.1,2-8.1s-2.4,0.2-4.8,0.8c-2.5,0.7-0.9-4.3,5.2-8.8
							L1300.2,258.4z"/>
						<path class="st18" d="M1294.3,204.4c0,0-11.9-0.9-14.5,8.8c0,0,1.7,9.3,8.2,21c0,0,1.1,3.4,0.4,9.1
							c-0.7,5.8-2.4,13.8-2.4,13.8s4.8,4.1,14.2,1.3c0,0,6.3-13.2,5.2-25.5C1304.2,220.6,1294.3,204.4,1294.3,204.4z"/>
					</g>
					<g>
						<path class="st19" d="M1293.6,261.9c-4,0-7-1.9-8.4-3.4c-0.6-0.7-0.6-1.7,0.1-2.3c0.7-0.6,1.7-0.6,2.3,0.1
							c0.2,0.2,4.6,4.8,11.8,0.7c0.8-0.4,1.8-0.2,2.2,0.6c0.4,0.8,0.2,1.8-0.6,2.2C1298.3,261.4,1295.8,261.9,1293.6,261.9z"/>
						<path class="st19" d="M1288.6,238.4c0,0,15-0.2,16.7-5.5c0,0,0.8,2.6-0.2,8.2c0,0-8.3,2.9-16.5-0.5
							C1288.6,240.7,1288,240.5,1288.6,238.4z"/>
						<path class="st19" d="M1280.1,216.7c-0.1,0-0.2,0-0.4,0c-1.2-0.2-2-1.3-1.8-2.5c1.9-10.9,11.7-12.5,16.6-11.8
							c1.2,0.2,2,1.2,1.8,2.4c-0.2,1.2-1.2,2-2.4,1.8c-1-0.1-10.2-1-11.8,8.3C1282,215.9,1281.1,216.7,1280.1,216.7z"/>
					</g>
				</g>
			</g>
		</g>
	</g>
	<g id="JUPITER">
		
			<linearGradient id="SVGID_8_" gradientUnits="userSpaceOnUse" x1="1842.576" y1="1186.5737" x2="1847.0291" y2="931.4576" gradientTransform="matrix(0.6104 -7.520000e-02 -8.250000e-02 -0.6691 721.2494 1097.3214)">
			<stop  offset="0" style="stop-color:#F3E6C9;stop-opacity:0.9"/>
			<stop  offset="0.9316" style="stop-color:#F3E6C9;stop-opacity:0"/>
		</linearGradient>
		<path class="st22" d="M1821.3,233.7c-4.4-35.7-36-61.1-70.5-56.8c-34.6,4.3-59,36.6-54.6,72.3c4.4,35.7,36,61.1,70.5,56.8
			S1825.7,269.4,1821.3,233.7z"/>
		<path class="st23" d="M1818.4,220.7c0.1,0.3,0.1,0.5,0.1,0.8c9.6,2.8,15.6,6.9,16.2,12.1c1.6,13.2-32.2,28.3-75.6,33.6
			c-43.4,5.3-79.9-1-81.5-14.3c-0.8-6.2,6.2-12.7,18.2-18.5c-0.1-0.3-0.1-0.7-0.1-1c-18.5,7.5-29.7,16.6-28.7,25.1
			c1.9,15.4,43.1,23,92,17c48.9-6,87.1-23.4,85.2-38.8C1843.4,229.4,1833.6,223.9,1818.4,220.7z"/>
	</g>
</g>
</svg>
